<svg width="28" height="28" viewBox="0 0 28 28" fill="none" xmlns="http://www.w3.org/2000/svg">
<g id="Group 17443">
<g id="Group 75">
<g id="Group 74">
<path id="Path 28" d="M22.9382 13.4729C22.4251 12.8712 22.0109 12.1916 21.7112 11.4598C21.4858 10.8902 21.3721 10.2825 21.3762 9.66992V9.44885C21.3762 7.34409 20.5402 5.32557 19.0519 3.83728C17.5636 2.34899 15.5449 1.51294 13.4402 1.51294C11.3349 1.51294 9.31592 2.34923 7.82726 3.83789C6.3386 5.32655 5.50219 7.34564 5.50219 9.45093V9.67395C5.50634 10.2831 5.39327 10.8874 5.16918 11.4539C4.86936 12.1876 4.45448 12.8688 3.94017 13.4719C3.63539 13.9808 3.43402 14.5448 3.34752 15.1316C3.26103 15.7184 3.29115 16.3165 3.43615 16.8917C3.58115 17.4669 3.83814 18.0078 4.19249 18.4835C4.54685 18.9592 4.99161 19.3604 5.50121 19.6639C5.50693 19.6686 5.51339 19.6723 5.52025 19.6749L5.57421 19.7059C5.70604 19.775 5.8423 19.835 5.98217 19.8859C6.03617 19.9069 6.0972 19.9289 6.1632 19.9519C6.35315 20.0225 6.54722 20.0816 6.74425 20.1289C6.78225 20.1369 6.81917 20.148 6.85717 20.153H6.86522L7.09227 20.2069C7.25127 20.2429 7.42322 20.2778 7.61022 20.3138L7.90221 20.3658C8.10221 20.3998 8.32322 20.4339 8.55822 20.4659C8.79322 20.4979 9.04422 20.5289 9.31322 20.5569C10.684 20.6933 12.0607 20.76 13.4382 20.7568C14.2382 20.7568 14.9602 20.7449 15.6152 20.7169C16.7602 20.6669 17.6923 20.5769 18.4473 20.4689C18.7703 20.4229 19.0623 20.3689 19.3223 20.3219C20.0417 20.2321 20.738 20.0085 21.3752 19.6628C21.8848 19.3595 22.3296 18.9587 22.6841 18.4833C23.0385 18.0078 23.2957 17.4671 23.4409 16.8921C23.5861 16.3171 23.6164 15.7192 23.5301 15.1324C23.4439 14.5457 23.2427 13.9818 22.9382 13.4729Z" fill="#D3D1D8"/>
<path id="Path 29" d="M16.541 22.4398C15.552 22.068 14.4956 21.9092 13.441 21.9737C12.3864 21.9092 11.3301 22.0681 10.341 22.4398C10.1846 22.5321 10.0603 22.6702 9.98497 22.8355C9.90967 23.0008 9.88704 23.1852 9.92003 23.3638C10.0857 23.872 10.3878 24.3248 10.7934 24.673C11.1991 25.0211 11.6925 25.2511 12.22 25.3378C13.0215 25.555 13.8664 25.555 14.668 25.3378C15.1955 25.2513 15.6891 25.0214 16.0947 24.6732C16.5004 24.3251 16.8025 23.8721 16.968 23.3638C17.0006 23.1846 16.977 22.9997 16.9006 22.8343C16.8242 22.6689 16.6986 22.5312 16.541 22.4398Z" fill="#D3D1D8"/>
</g>
</g>
</g>
</svg>
