<svg width="26" height="28" viewBox="0 0 26 28" fill="none" xmlns="http://www.w3.org/2000/svg">
<g id="Group 17440">
<g id="Group 17306">
<g id="Group 17305">
<path id="Path 3412" d="M20.849 4.71894C19.964 3.27256 18.7213 2.07844 17.2407 1.25189C15.7601 0.425348 14.0916 -0.00587288 12.396 -0.000180723C10.7002 -0.00625996 9.0315 0.424823 7.55087 1.25141C6.07023 2.07799 4.82768 3.27229 3.94296 4.71894C3.2171 5.94642 2.75066 7.30969 2.57247 8.72455C2.39428 10.1394 2.50811 11.5758 2.90695 12.9449C4.62395 18.8499 10.3899 22.6828 11.9829 23.6448C12.1071 23.7192 12.2491 23.7585 12.3939 23.7585C12.5386 23.7585 12.6807 23.7192 12.8049 23.6448C14.3989 22.6798 20.1639 18.8449 21.8809 12.9449C22.2805 11.576 22.395 10.1398 22.2175 8.72492C22.04 7.31004 21.5743 5.94666 20.849 4.71894ZM12.396 13.5479C11.4988 13.5476 10.6385 13.1911 10.0041 12.5567C9.36974 11.9223 9.01317 11.062 9.0129 10.1649C9.01317 9.26771 9.36974 8.40739 10.0041 7.77301C10.6385 7.13863 11.4988 6.78219 12.396 6.78192C13.2933 6.78192 14.1538 7.13824 14.7884 7.77265C15.423 8.40705 15.7796 9.26754 15.7799 10.1649C15.7796 11.0622 15.423 11.9227 14.7884 12.5571C14.1538 13.1915 13.2933 13.5479 12.396 13.5479Z" fill="#D3D1D8"/>
</g>
</g>
</g>
</svg>
