<svg width="26" height="26" viewBox="0 0 26 26" fill="none" xmlns="http://www.w3.org/2000/svg">
<g id="Group 18073">
<g id="Group 17348">
<path id="Path 3392" d="M17.8663 1.57634e-08C16.8402 0.000178998 15.8326 0.273457 14.9471 0.791771C14.0615 1.31009 13.3299 2.05476 12.8273 2.94932C12.3246 2.05455 11.5927 1.30974 10.7069 0.791409C9.82109 0.273081 8.81324 -7.57651e-05 7.78692 1.57634e-08C6.21506 0.0848925 4.73644 0.772507 3.65864 1.91981C2.58084 3.0671 1.98685 4.58575 2.00022 6.15985C2.00022 14.1869 12.8273 19.787 12.8273 19.787C12.8273 19.787 23.6544 14.1897 23.6544 6.15985C23.6678 4.58552 23.0736 3.06667 21.9955 1.91933C20.9174 0.771995 19.4384 0.084536 17.8663 1.57634e-08V1.57634e-08Z" fill="#D3D1D8"/>
</g>
</g>
</svg>
